<?xml version="1.0" encoding="utf-8"?>
<!-- Generator: Adobe Illustrator 17.1.0, SVG Export Plug-In . SVG Version: 6.00 Build 0)  -->
<!DOCTYPE svg PUBLIC "-//W3C//DTD SVG 1.1//EN" "http://www.w3.org/Graphics/SVG/1.1/DTD/svg11.dtd">
<svg version="1.1" id="Layer_1" xmlns="http://www.w3.org/2000/svg" xmlns:xlink="http://www.w3.org/1999/xlink" x="0px" y="0px"
	 viewBox="0 0 1024 768" enable-background="new 0 0 1024 768" xml:space="preserve">
<path d="M512,0C294.6,0,118.3,176.3,118.3,393.7c0,173.9,113.5,321.2,268.1,374.3c19.3,2.4,26.6-9.7,26.6-19.3v-67.6
	c-108.7,24.2-132.8-53.1-132.8-53.1c-16.9-45.9-43.5-58-43.5-58c-36.2-24.2,2.4-24.2,2.4-24.2c38.6,2.4,60.4,41.1,60.4,41.1
	c36.2,60.4,91.8,43.5,113.5,33.8c2.4-26.6,14.5-43.5,24.2-53.1c-86.9-9.7-178.7-43.5-178.7-195.6c0-43.5,14.5-77.3,41.1-106.3
	c-2.4-7.2-16.9-48.3,4.8-101.4c0,0,33.8-9.7,108.7,41.1c31.4-9.7,65.2-12.1,99-12.1c33.8,0,67.6,4.8,99,12.1
	c74.9-50.7,108.7-41.1,108.7-41.1c21.7,53.1,7.2,94.2,4.8,103.8c24.2,26.6,41.1,62.8,41.1,106.3c0,152.2-91.8,183.5-178.7,193.2
	c14.5,12.1,26.6,36.2,26.6,72.5v108.7c0,9.7,7.2,21.7,26.6,19.3c157-53.1,268.1-200.5,268.1-374.3C905.7,176.3,729.4,0,512,0z"/>
</svg>
